<?xml version="1.0" encoding="utf-8"?>
<!-- Generator: Adobe Illustrator 13.0.0, SVG Export Plug-In . SVG Version: 6.00 Build 14948)  -->
<!DOCTYPE svg PUBLIC "-//W3C//DTD SVG 1.1//EN" "http://www.w3.org/Graphics/SVG/1.1/DTD/svg11.dtd">
<svg version="1.1" id="Layer_1" xmlns="http://www.w3.org/2000/svg" xmlns:xlink="http://www.w3.org/1999/xlink" x="0px" y="0px"
	 width="200px" height="52px" viewBox="0 0 200 52" enable-background="new 0 0 200 52" xml:space="preserve">
<g>
	<rect x="11.492" y="10.994" fill="#242021" width="180" height="26.353"/>
	<g>
		<path fill="#FFFFFF" d="M25.444,31.843l-1.387-3.924h-7.573l-1.387,3.924h-1.974l6.381-17.339h1.558l6.354,17.339H25.444z
			 M20.307,17.159l-3.262,9.154h6.477L20.307,17.159z"/>
		<path fill="#FFFFFF" d="M31.804,20.104c0.536-0.264,1.169-0.388,1.924-0.388c3.092,0,4.479,1.926,4.479,6.157
			c0,4.168-1.411,6.116-4.456,6.116c-0.729,0-1.364-0.125-1.923-0.39c-0.511-0.244-0.802-0.488-1.388-1.173v6.772h-1.753V19.862
			h1.753v1.415C31,20.619,31.292,20.373,31.804,20.104z M33.435,21.276c-2.094,0-2.995,1.384-2.995,4.577
			c0,3.214,0.901,4.573,3.02,4.573c2.096,0,2.995-1.359,2.995-4.554C36.455,22.611,35.58,21.276,33.435,21.276z"/>
		<path fill="#FFFFFF" d="M44.395,21.371v10.472h-1.751V21.371h-4.115v-1.509h9.789v1.509H44.395z"/>
		<path fill="#FFFFFF" d="M50.632,26.313c0.048,1.098,0.122,1.584,0.364,2.168c0.561,1.343,1.63,1.975,3.264,1.975
			c0.562,0,1.096-0.124,1.535-0.294c0.534-0.219,0.85-0.44,1.51-1.07l1.192,1.046c-0.875,0.852-1.29,1.144-2.02,1.438
			c-0.659,0.268-1.438,0.413-2.315,0.413c-3.457,0-5.284-2.143-5.284-6.211c0-3.774,1.876-6.063,4.92-6.063
			c3.043,0,4.919,2.214,4.919,5.792v0.806H50.632z M51.288,17.23c-0.607,0-1.094-0.485-1.094-1.095c0-0.608,0.487-1.121,1.094-1.121
			c0.586,0,1.098,0.513,1.098,1.098C52.385,16.745,51.898,17.23,51.288,17.23z M56.745,23.417C56.33,22.028,55.21,21.2,53.798,21.2
			c-1.267,0-2.313,0.682-2.802,1.802c-0.242,0.538-0.316,0.926-0.364,1.997h6.33C56.916,24.075,56.891,23.856,56.745,23.417z
			 M56.454,17.23c-0.611,0-1.098-0.485-1.098-1.095c0-0.608,0.487-1.121,1.098-1.121c0.583,0,1.095,0.513,1.095,1.098
			C57.548,16.745,57.061,17.23,56.454,17.23z"/>
		<path fill="#FFFFFF" d="M71.042,31.843v-8.525l-3.336,6.625h-1.339l-3.386-6.625v8.525h-1.728V19.862h1.728l4.068,8.058
			l4.018-8.058h1.727v11.981H71.042z"/>
		<path fill="#FFFFFF" d="M91.208,31.843V16.16h-8.207v15.683h-1.848V14.504H93.06v17.339H91.208z"/>
		<path fill="#FFFFFF" d="M104.265,30.624c-0.878,0.874-2.068,1.365-3.433,1.365s-2.557-0.491-3.436-1.365
			c-1.023-1.046-1.459-2.46-1.459-4.771c0-2.313,0.436-3.728,1.459-4.773c0.878-0.88,2.071-1.364,3.436-1.364
			c1.339,0,2.555,0.484,3.433,1.364c1.023,1.023,1.46,2.46,1.46,4.698C105.725,28.164,105.314,29.553,104.265,30.624z
			 M103.024,22.15c-0.535-0.562-1.34-0.874-2.191-0.874c-0.827,0-1.633,0.312-2.167,0.874c-0.707,0.707-0.976,1.755-0.976,3.703
			c0,1.946,0.269,2.97,0.976,3.7c0.534,0.562,1.315,0.873,2.167,0.873s1.656-0.312,2.191-0.873c0.684-0.705,0.948-1.729,0.948-3.629
			C103.972,23.88,103.73,22.857,103.024,22.15z"/>
		<path fill="#FFFFFF" d="M115.495,31.843V21.371h-4.287l-0.146,5.552c-0.097,3.58-1.63,4.92-3.773,4.92h-0.999v-1.512h0.56
			c1.046,0,2.386-0.461,2.483-3.896l0.171-6.573h7.743v11.981H115.495z"/>
		<path fill="#FFFFFF" d="M127.235,31.843v-1.146c-0.583,0.561-0.878,0.781-1.364,0.974c-0.56,0.244-1.195,0.317-2.119,0.317
			c-2.775,0-4.262-1.241-4.262-3.532c0-2.166,1.559-3.458,4.14-3.458h3.605v-1.143c0-1.828-0.948-2.634-3.142-2.634
			c-0.777,0-1.364,0.125-1.851,0.366c-0.415,0.198-0.657,0.415-1.095,1.002l-1.195-1.098c0.635-0.729,0.926-1,1.509-1.293
			c0.685-0.337,1.536-0.484,2.679-0.484c3.217,0,4.848,1.339,4.848,3.994v8.134H127.235z M123.874,26.313
			c-1.777,0-2.679,0.708-2.679,2.121c0,1.437,0.877,2.047,2.898,2.047c2.24,0,3.142-0.83,3.142-2.874v-1.294H123.874z"/>
		<path fill="#FFFFFF" d="M139.582,31.843v-5.431h-5.794v5.431h-1.729V19.862h1.729v5.04h5.794v-5.04h1.755v11.981H139.582z"/>
		<path fill="#FFFFFF" d="M151.249,31.624c-0.584,0.24-1.24,0.365-2.019,0.365c-3.36,0-5.382-2.314-5.382-6.136
			c0-3.825,2.021-6.138,5.382-6.138c0.778,0,1.435,0.124,2.019,0.364c0.661,0.293,1.049,0.587,1.852,1.414l-1.19,1.119
			c-0.612-0.63-0.901-0.875-1.364-1.071c-0.391-0.169-0.831-0.264-1.34-0.264c-2.362,0-3.605,1.558-3.605,4.577
			c0,3.02,1.219,4.573,3.579,4.573c0.51,0,0.928-0.07,1.316-0.239c0.488-0.221,0.777-0.466,1.414-1.12l1.19,1.144
			C152.297,31.04,151.91,31.33,151.249,31.624z"/>
		<path fill="#FFFFFF" d="M163.183,31.843l-3.919-5.796l-2.239,2.536v3.26h-1.755V19.862h1.755v6.451l5.6-6.451h2.167l-4.332,4.893
			l4.915,7.089H163.183z"/>
		<path fill="#FFFFFF" d="M174.902,31.843v-9.279l-6.162,9.279h-1.729V19.862h1.729v9.229l6.162-9.229h1.755v11.981H174.902z"/>
		<path fill="#FFFFFF" d="M187.736,31.843v-9.279l-6.16,9.279h-1.728V19.862h1.728v9.229l6.16-9.229h1.757v11.981H187.736z
			 M184.646,17.768c-2.193,0-3.483-1.073-3.897-3.169h1.414c0.265,1.026,0.973,1.78,2.508,1.78c1.532,0,2.214-0.754,2.458-1.78
			h1.414C188.149,16.695,186.834,17.768,184.646,17.768z"/>
	</g>
</g>
</svg>
