<?xml version="1.0" encoding="utf-8"?>
<!-- Generator: Adobe Illustrator 13.0.0, SVG Export Plug-In . SVG Version: 6.00 Build 14948)  -->
<!DOCTYPE svg PUBLIC "-//W3C//DTD SVG 1.1//EN" "http://www.w3.org/Graphics/SVG/1.1/DTD/svg11.dtd">
<svg version="1.1" id="Layer_1" xmlns="http://www.w3.org/2000/svg" xmlns:xlink="http://www.w3.org/1999/xlink" x="0px" y="0px"
	 width="150px" height="130px" viewBox="0 0 150 130" enable-background="new 0 0 150 130" xml:space="preserve">
<g>
	<g>
		<polygon fill-rule="evenodd" clip-rule="evenodd" fill="#231F20" points="150,21.979 150,130 0,130 0,0 150,0 150,21.979 		"/>
		<polygon fill-rule="evenodd" clip-rule="evenodd" fill="#41C4F2" points="10.891,33.636 10.891,9.977 12.684,9.977 12.684,32.042 
			25.248,32.042 25.248,33.636 10.891,33.636 		"/>
		<path fill-rule="evenodd" clip-rule="evenodd" fill="#41C4F2" d="M34.686,33.836c-4.754,0-8.108-3.256-8.108-7.877V9.977h1.794
			v15.752c0,3.919,2.526,6.513,6.314,6.513s6.313-2.594,6.313-6.513V9.977h1.797v15.982C42.795,30.58,39.437,33.836,34.686,33.836
			L34.686,33.836z"/>
		<polygon fill-rule="evenodd" clip-rule="evenodd" fill="#41C4F2" points="59.446,33.636 53.265,23.102 47.082,33.636 
			45.056,33.636 52.3,21.508 45.521,9.977 47.616,9.977 53.265,19.912 58.946,9.977 61.007,9.977 54.229,21.508 61.538,33.636 
			59.446,33.636 		"/>
		<path fill-rule="evenodd" clip-rule="evenodd" fill="#41C4F2" d="M71.908,33.836c-4.751,0-8.109-3.256-8.109-7.877V9.977h1.795
			v15.752c0,3.919,2.527,6.513,6.314,6.513c3.791,0,6.316-2.594,6.316-6.513V9.977h1.792v15.982
			C80.016,30.58,76.66,33.836,71.908,33.836L71.908,33.836z"/>
		<path fill-rule="evenodd" clip-rule="evenodd" fill="#41C4F2" d="M94.109,21.142c3.289,0,5.216-1.762,5.216-4.785
			c0-3.027-1.927-4.787-5.216-4.787h-6.979v9.572H94.109L94.109,21.142z M99.292,33.636l-5.649-10.899h-6.514v10.899h-1.791V9.977
			h9.004c4.117,0,6.777,2.493,6.777,6.347c0,1.694-0.499,3.157-1.43,4.251c-1.095,1.299-2.393,1.763-4.021,2.132l5.72,10.929H99.292
			L99.292,33.636z"/>
		<polygon fill-rule="evenodd" clip-rule="evenodd" fill="#41C4F2" points="110.958,23.833 110.958,33.636 109.164,33.636 
			109.164,23.833 102.184,9.977 104.112,9.977 110.125,21.941 116.008,9.977 117.934,9.977 110.958,23.833 		"/>
		<polygon fill-rule="evenodd" clip-rule="evenodd" fill="#C9CDD4" points="19.73,43.478 19.73,65.543 17.934,65.543 17.934,43.478 
			10.892,43.478 10.892,41.881 26.808,41.881 26.808,43.478 19.73,43.478 		"/>
		<path fill-rule="evenodd" clip-rule="evenodd" fill="#C9CDD4" d="M38.574,53.045c3.287,0,5.218-1.762,5.218-4.784
			c0-3.023-1.931-4.783-5.218-4.783h-6.977v9.567H38.574L38.574,53.045z M43.757,65.543l-5.649-10.9h-6.511v10.9H29.8V41.881h9.007
			c4.12,0,6.779,2.492,6.779,6.349c0,1.693-0.499,3.158-1.433,4.253c-1.092,1.292-2.389,1.76-4.017,2.125l5.717,10.934H43.757
			L43.757,65.543z"/>
		<path fill-rule="evenodd" clip-rule="evenodd" fill="#C9CDD4" d="M56.32,44.274l-4.952,13.923h9.904L56.32,44.274L56.32,44.274z
			 M63.898,65.543l-2.062-5.75H50.803l-2.057,5.75h-1.927l8.705-23.662h1.596l8.708,23.662H63.898L63.898,65.543z"/>
		<polygon fill-rule="evenodd" clip-rule="evenodd" fill="#C9CDD4" points="73.138,65.543 71.608,65.543 63.835,41.881 
			65.728,41.881 72.375,62.384 79.021,41.881 80.916,41.881 73.138,65.543 		"/>
		<polygon fill-rule="evenodd" clip-rule="evenodd" fill="#C9CDD4" points="83.242,65.543 83.242,41.881 97.598,41.881 
			97.598,43.478 85.034,43.478 85.034,52.814 95.736,52.814 95.736,54.407 85.034,54.407 85.034,63.947 97.598,63.947 
			97.598,65.543 83.242,65.543 		"/>
		<polygon fill-rule="evenodd" clip-rule="evenodd" fill="#C9CDD4" points="101.454,65.543 101.454,41.881 103.249,41.881 
			103.249,63.947 115.808,63.947 115.808,65.543 101.454,65.543 		"/>
		<polygon fill-rule="evenodd" clip-rule="evenodd" fill="#FFFFFF" points="28.966,97.449 28.966,77.941 21.792,94.125 
			19.996,94.125 12.684,77.941 12.684,97.449 10.891,97.449 10.891,73.787 12.684,73.787 20.925,92.031 28.966,73.787 
			30.763,73.787 30.763,97.449 28.966,97.449 		"/>
		<path fill-rule="evenodd" clip-rule="evenodd" fill="#FFFFFF" d="M42.761,76.18L37.81,90.103h9.904L42.761,76.18L42.761,76.18z
			 M50.339,97.449l-2.059-5.751H37.246l-2.062,5.751h-1.926l8.709-23.662h1.592l8.708,23.662H50.339L50.339,97.449z"/>
		<path fill-rule="evenodd" clip-rule="evenodd" fill="#FFFFFF" d="M63.53,84.955c3.292,0,5.221-1.762,5.221-4.787
			c0-3.024-1.928-4.785-5.221-4.785h-6.978v9.572H63.53L63.53,84.955z M68.718,97.449l-5.651-10.904h-6.514v10.904h-1.791V73.787
			h9.004c4.122,0,6.778,2.493,6.778,6.348c0,1.693-0.498,3.155-1.426,4.253c-1.099,1.296-2.396,1.762-4.023,2.128l5.717,10.934
			H68.718L68.718,97.449z"/>
		<polygon fill-rule="evenodd" clip-rule="evenodd" fill="#FFFFFF" points="81.113,75.383 81.113,97.449 79.319,97.449 
			79.319,75.383 72.275,75.383 72.275,73.787 88.19,73.787 88.19,75.383 81.113,75.383 		"/>
	</g>
	<path fill="none" stroke="#9D9FA2" d="M26.577,9.977"/>
	<path fill="none" stroke="#9D9FA2" d="M26.577,54.972"/>
	<g>
		<path fill="#FFFFFF" d="M97.594,81.482c-0.878,0.882-1.941,1.324-3.187,1.324c-1.247,0-2.308-0.442-3.183-1.324
			c-0.87-0.88-1.306-1.943-1.306-3.195c0-1.238,0.439-2.298,1.318-3.178c0.875-0.875,1.932-1.312,3.17-1.312
			c1.245,0,2.309,0.437,3.187,1.312c0.878,0.876,1.318,1.936,1.318,3.178C98.913,79.534,98.472,80.599,97.594,81.482z
			 M91.677,75.552c-0.752,0.757-1.128,1.671-1.128,2.742c0,1.079,0.373,1.999,1.121,2.76c0.752,0.76,1.664,1.14,2.739,1.14
			c1.073,0,1.986-0.38,2.738-1.14c0.751-0.761,1.126-1.681,1.126-2.76c0-1.071-0.375-1.985-1.126-2.742
			c-0.756-0.762-1.67-1.142-2.738-1.142C93.343,74.41,92.432,74.79,91.677,75.552z M94.322,75.801c0.612,0,1.062,0.059,1.349,0.177
			c0.509,0.216,0.765,0.632,0.765,1.254c0,0.442-0.16,0.768-0.483,0.977c-0.171,0.111-0.409,0.19-0.716,0.24
			c0.387,0.061,0.67,0.223,0.85,0.484c0.179,0.261,0.268,0.516,0.268,0.765v0.362c0,0.114,0.005,0.236,0.014,0.367
			s0.023,0.217,0.045,0.259l0.031,0.062h-0.822c-0.004-0.018-0.008-0.033-0.013-0.05c-0.003-0.016-0.009-0.035-0.013-0.055
			l-0.019-0.158v-0.392c0-0.572-0.153-0.949-0.463-1.133c-0.183-0.105-0.504-0.159-0.964-0.159h-0.683v1.946h-0.874v-4.946H94.322z
			 M95.258,76.581c-0.219-0.122-0.568-0.184-1.05-0.184h-0.741v1.79h0.784c0.367,0,0.643-0.037,0.826-0.11
			c0.339-0.136,0.508-0.393,0.508-0.772C95.585,76.944,95.477,76.703,95.258,76.581z"/>
	</g>
</g>
</svg>
